<svg xmlns="http://www.w3.org/2000/svg" width="48" height="42" viewBox="0 0 48 42">
    <defs>
        <linearGradient id="a" x1="84.731%" x2="-35.961%" y1="0%" y2="115.294%">
            <stop offset="0%" stop-color="#FF6643"/>
            <stop offset="100%" stop-color="#FF3939"/>
        </linearGradient>
    </defs>
    <g fill="none" fill-rule="evenodd">
        <path fill="#FFF" d="M22.027 23.733c.125.591-.273 1.167-.889 1.287-.615.12-1.215-.262-1.34-.854L14.985 1.341c-.125-.59.273-1.167.89-1.286.614-.12 1.215.262 1.34.853l4.812 22.825z"/>
        <path fill="url(#a)" d="M18.376 1.936c-4.24.4-4.997-1.616-9.042-1.557C7.022.413 4.725 1 3.58 1.437l2.873 13.621c.699-.24 1.726-.444 3.11-.345 1.836.13 2.524 1.407 6.633 1.11 2.954-.214 4.585-1.917 4.585-1.917L22.103.51s-.824 1.151-3.727 1.426z" transform="translate(14.857)"/>
        <path stroke="#FFF" stroke-linecap="round" stroke-linejoin="round" stroke-width="2.333" d="M2.001 37.04c5.058-4.688 8.183-7.422 9.376-8.203 1.789-1.171 3.548-1.223 5.304-.498 1.756.724 3.345 2.49 6.827 1.669 3.482-.822 6.1-5.666 9.37-4.175 2.178.994 6.805 5.701 13.88 14.121"/>
    </g>
</svg>
